<?xml version="1.0" encoding="utf-8"?>
<svg viewBox="75.861 -328.096 325.72 799.485" xmlns="http://www.w3.org/2000/svg">
  <path d="M 227.159 -327.142 C 212.614 -322.425 205.715 -310.829 205.745 -291.151 C 205.767 -276.115 208.55 -263.759 213.604 -256.248 L 216.315 -252.22 L 216.315 -241.723 L 216.315 -231.227 L 212.847 -230.35 C 198.908 -226.828 178.654 -217.698 169.73 -210.916 C 162.454 -205.387 155.811 -197.867 152.801 -191.751 C 146.931 -179.826 147.073 -170.658 153.467 -148.733 C 154.885 -143.871 157.03 -132.748 158.423 -123.025 C 161.065 -104.589 162.329 -98.271 165.03 -89.971 C 169.995 -74.72 176.622 -67.995 186.73 -67.953 L 191.015 -67.935 L 191.015 -52.369 C 191.015 -37.303 190.95 -36.693 189.005 -33.376 C 183.48 -23.947 182.731 -6.266 186.406 27.963 C 189.977 61.225 192.433 73.75 197.251 83.274 C 201.685 92.038 201.655 111.321 197.185 125.013 C 191.394 142.751 192.991 170.649 200.853 189.125 C 205.22 199.388 206.615 206.313 207.104 220.165 C 207.449 229.923 207.208 235.335 206.049 243.834 C 205.222 249.893 204.532 257.031 204.514 259.696 L 204.481 264.541 L 193.463 265.94 C 164.396 269.631 142.344 277.46 137.097 285.949 C 130.38 296.818 145.54 307.051 178.027 313.577 C 198.137 317.618 208.022 318.419 238.351 318.467 C 267.187 318.512 274.968 317.998 294.01 314.79 C 324.648 309.629 342.818 300.632 342.818 290.623 C 342.818 280.514 317.362 269.634 284.872 265.856 C 272.579 264.426 273.5 264.946 273.67 259.539 C 273.752 256.96 273.139 249.526 272.311 243.017 C 269.541 221.269 271.212 203.86 277.482 189.125 C 285.32 170.706 286.972 142.691 281.253 125.171 C 276.726 111.3 276.695 91.941 281.186 83.078 C 285.907 73.761 288.636 59.478 292.339 24.698 C 295.659 -6.49 294.765 -23.806 289.333 -33.526 C 287.392 -36.999 287.32 -37.674 287.32 -52.531 L 287.32 -67.935 L 291.605 -67.953 C 306.837 -68.016 314.146 -82.211 319.961 -123.025 C 321.666 -134.991 323.412 -143.612 325.748 -151.59 C 331.665 -171.802 331.011 -183.989 323.382 -195.696 C 314.743 -208.953 298.293 -219.887 275.78 -227.335 C 271.129 -228.874 266.131 -230.394 264.672 -230.713 L 262.019 -231.294 L 262.019 -241.239 C 262.019 -249.67 262.267 -251.618 263.643 -254.029 C 267.767 -261.253 268.758 -263.538 270.302 -269.385 C 272.337 -277.098 273.232 -295.467 271.912 -302.49 C 269.885 -313.288 264.45 -320.872 255.626 -325.217 C 250.54 -327.722 249.648 -327.889 240.41 -328.068 C 233.852 -328.195 229.458 -327.888 227.159 -327.142 M 343.224 305.522 C 326.294 317.668 293.412 325.371 251.818 326.934 C 204.198 328.723 160.217 322.532 137.438 310.833 C 133.912 309.023 129.991 306.887 128.722 306.089 C 126.426 304.642 126.409 304.646 124.427 307.085 C 119.43 313.235 116.534 323.121 116.417 334.426 C 116.345 341.494 116.554 342.612 118.786 347.076 L 121.234 351.973 L 112.066 354.988 C 94.675 360.707 81.733 368.564 78.046 375.641 C 76.433 378.739 76.334 380.368 76.104 407.589 L 75.861 436.272 L 79.368 439.096 C 106.148 460.66 169.331 472.706 248.145 471.275 C 275.737 470.774 285.663 470.132 306.908 467.472 C 352.714 461.737 387.516 448.023 399.143 431.124 L 401.581 427.581 L 401.581 403.367 C 401.581 382.754 401.384 378.739 400.261 376.371 C 396.787 369.052 382.319 360.101 365.247 354.71 L 356.959 352.093 L 359.457 347.251 C 361.744 342.815 361.944 341.785 361.843 334.949 C 361.629 320.497 357.181 308.58 350.308 304.047 C 349.106 303.256 347.939 302.604 347.712 302.602 C 347.486 302.599 345.466 303.913 343.224 305.522" stroke="none" fill-rule="evenodd" style="paint-order: fill; fill: rgb(235, 171, 71);"/>
</svg>